<svg xmlns="http://www.w3.org/2000/svg" class="ionicon" viewBox="0 0 512 512" fill="#fff">
  <path d="M417.2 64H94.8C73.7 64 56 81.7 56 102.8v306.4c0 21.1 17.7 38.8 38.8 38.8h322.4c21.1 0 38.8-17.7 38.8-38.8V102.8C456 81.7 438.3 64 417.2 64zM192 392h-64V208h64v184zm-32-208c-21.2 0-36-14.7-36-34.5s14.8-34.5 36-34.5 36 14.7 36 34.5-14.8 34.5-36 34.5zm240 208h-64V293.9c0-23.6-8.5-39.7-29.7-39.7-16.2 0-25.8 10.9-30 21.5-1.5 3.6-1.9 8.7-1.9 13.8V392h-64V208h64v25.5c8.5-13 23.6-31.5 57.5-31.5 42 0 73.5 27.4 73.5 86.3V392z"/>
</svg>
